<?xml version="1.0" encoding="utf-8"?>
<!-- Generator: Adobe Illustrator 24.2.0, SVG Export Plug-In . SVG Version: 6.00 Build 0)  -->
<svg version="1.1" id="Layer_1" xmlns="http://www.w3.org/2000/svg" xmlns:xlink="http://www.w3.org/1999/xlink" x="0px" y="0px"
	 viewBox="0 0 1000 1000" style="enable-background:new 0 0 1000 1000;" xml:space="preserve">
<style type="text/css">
	.st0{fill:#333333;}
</style>
<path class="st0" d="M298.2,361.7c-1.4,1.9-1.2,3.1,1.4,3.2c1,0,1.9,0,2.9,0c43.3-0.1,86.7-0.3,130-0.4
	c81.9-0.2,163.8-0.4,245.6-0.6c2.2,0,5.5,0.7,6.3-1c0.9-1.9-1.9-3.8-3.3-5.5C620.1,283,559,208.6,497.9,134.2
	c-1-1.2-2.1-2.3-3.2-3.4c-1,0-1.9,0-2.9,0c-1.3,1.2-2.7,2.3-3.9,3.7c-62.4,74.6-124.7,149.2-187.1,223.8
	C299.9,359.4,299,360.6,298.2,361.7z M498,265.7c4.6-18.8,18.4-25.8,35.9-23.7c13.2,1.6,22.2,9.3,27.1,21.4
	c5.5,13.3,6.6,27.3,3.5,41.3c-3.7,17-16.6,25.9-33.9,24c-16.6-1.8-27.1-11.4-31.7-28.8c-1.7-6.5-2.4-13.2-2.4-20
	C496.6,275.2,496.8,270.4,498,265.7z M414.9,324c0.1-9,4.4-14.8,11.7-19.8c8.7-5.9,16.8-12.8,25.1-19.4c4.8-3.8,9-7.9,10-14.4
	c1.1-7.2-2.8-12.2-10-12.8c-7.5-0.6-14.1,2.1-20.7,5c-2.1,0.9-4.1,2-6.8,3.3c0.9-6.2,1.8-11.8,2.6-17.4c0.2-1,0.9-1.4,1.7-1.6
	c12.6-3.4,25.2-6.1,38.3-3.3c18.1,3.8,20.7,18.4,15.1,31.3c-3.2,7.4-9.3,12.4-15.3,17.4c-6.9,5.6-14,11-21,16.4c-1,0.8-2,1.6-3,2.4
	c0.1,0.3,0.2,0.5,0.3,0.8c10.3,0,20.6,0.1,30.9-0.1c3.2-0.1,4.4,0.6,3.6,4c-0.6,2.6-1.2,5.2-1.2,7.8c0.1,4.1-2,4.5-5.4,4.5
	c-17.5-0.1-35-0.1-52.6,0C414.9,328.1,414.8,327.1,414.9,324z M819.8,605.8c-1.1-43.1-2.1-86.2-3.1-129.3
	c-1-43.8-2.1-87.6-3.1-131.4c-0.1-4.4-0.3-8.9-0.5-13.3c-0.1-2.3-1-3-3.2-2.1c-0.8,0.3-1.6,0.5-2.4,0.9
	c-30.5,13.9-61.1,27.9-91.6,41.9c-3.9,1.8-4.1,2.7-2.5,6.7c30.6,77.6,61.2,155.2,91.8,232.8c5,12.6,9.6,25.3,15.1,37.7
	c0-13.2,0-26.4,0-39.6C820.2,608.7,819.9,607.3,819.8,605.8z M808.9,461.8c-5,4.1-9.9,8.1-16.1,11.5c-1-18.3-1.9-36.2-2.9-54.5
	c-2.1,1.2-4.4,1.6-4.3,4.5c0.1,2-1.6,1.4-2.7,1.4c-5.6,0.1-10.2,2.6-14,6.5c-3.1,3.2-4.5,7-4.2,11.5c0.3,4.9,2.7,6.4,7.2,4.3
	c1.6-0.7,3.2-1.7,4.6-2.7c2.1-1.5,2.7-0.7,2.6,1.5c0,0.2,0,0.5,0,0.7c1,5.2-0.2,8.9-5.4,11.6c-4.9,2.5-7.2,7.3-6.7,13
	c0.4,4,2.7,5.2,6.3,3.4c4.8-2.4,8.2-6.6,11.6-10.6c2.7,7.2,1.6,12-3.7,16.9c-3.8,3.5-7.9,6.6-12.7,8.8c-7.3,3.3-11.9,0.6-12.6-7.4
	c-0.7-7,0.5-13.6,4.9-19.4c0.3-0.5,0.6-1,1-1.7c-5.8-0.4-7.5-4.1-8.3-8.9c-2.4-14.8,4.8-29,20.1-36.9c10.5-5.4,20.1-12.2,30.1-18.2
	c1.3-0.8,2.7-1.6,4-2.5c1.3-0.9,2-0.5,2,1c0.1,2.9,0.2,5.8,0.4,8.6c0.1,1.9-1.4,2.5-2.6,3c-6,2.5-7.5,6.8-6.8,13
	c1,9.4,1.1,18.9,1.7,28.4c0.1,1.7,0.3,3.5,0.5,5.2c0.3,0.2,0.7,0.4,1,0.7c2.5-3,4.9-6.1,7.4-9.1c0.4,0.3,0.8,0.6,1.2,0.9
	C813.2,451.7,814.8,457.1,808.9,461.8z M683.1,378c-64,0-128,0-192,0c0,0.2,0,0.4,0,0.6c-13.8,0-27.6,0-41.4,0
	c-51,0.1-102.1,0.2-153.1,0.3c-4.9,0-5,0.2-2.5,4.3c63.6,107.4,127.3,214.7,190.9,322.1c2.6,4.3,5.2,8.6,7.8,13
	c1.4,2.4,2.7,2.9,4.3,0.1c1.2-2.2,2.6-4.3,3.9-6.5c62-109.1,124.1-218.2,186.1-327.3C690.6,378,690.7,378,683.1,378z M477.1,495
	c-8.4,11.1-15.7,23-23.4,34.6c-1.3,2-2.7,3-5.2,2.9c-6-0.2-12-0.2-18,0c-2.4,0.1-3-0.8-3-3.1c0.1-7.8,0-15.6,0-23.4
	c0-7.7-0.1-15.4,0-23c0-2.3-0.4-3.4-3.1-3.4c-9,0-9-0.1-9-9.3c0-6.6,0-6.6,6.6-6.6c5.4,0,5.3,0,5.4-5.6c0.1-3.1-1.3-7.1,0.6-9
	c1.9-1.9,5.9-0.6,9-0.6c3.5,0.1,8.3-1.6,10.3,0.8c1.7,2.1,0.8,6.7,0.5,10.1c-0.3,3.5,0.8,4.4,4.3,4.4c10-0.3,19.9,0,29.9-0.1
	c2.6,0,3.5,0.7,3.1,3.2c0,0.1,0,0.2,0,0.4C486.9,477.8,483.5,486.5,477.1,495z M557.5,517.2c-0.1,1.1,0,2.2,0,3.2
	c0,8.1-0.1,7.7-8.1,9.7c-9.7,2.5-19.5,2.1-29.3,2.3c-2.5,0-3.1-0.9-3-3.1c0.1-10.3,0-20.6,0-31c0-10.4-0.1-20.9,0.1-31.3
	c0-2.7-0.8-3.6-3.5-3.4c-4.2,0.2-8.4,0-12.6,0.1c-2.1,0.1-3.1-0.5-3-2.8c0.3-4-1.6-9.2,0.9-11.8c2.2-2.3,7.3-0.6,11.1-0.6
	c14.5-0.1,29,0,43.6-0.1c2.5,0,3.5,0.6,3.3,3.2c-0.2,3.1-0.1,6.2,0,9.4c0.1,2-0.7,2.8-2.7,2.7c-4.6-0.1-9.1,0.1-13.7-0.1
	c-2.1-0.1-2.6,0.7-2.6,2.7c0.1,16.2,0.1,32.4,0,48.6c0,2.4,0.9,2.5,2.8,2.1c4.4-1,8.9-1.7,13.3-2.9
	C557,513.4,557.9,514.4,557.5,517.2z M701.6,386.9c-1.1,2-2,3.7-2.9,5.3c-41,72.1-81.9,144.2-122.9,216.2
	c-22.4,39.4-44.8,78.8-67.2,118.3c-0.7,1.1-2.1,2.4-1.1,3.8c0.6,0.9,2,0.5,3.1,0.3c33.2-4.6,66.3-9.1,99.5-13.7
	c30.3-4.2,60.6-8.5,90.9-12.7c36.4-5,72.7-10.2,109.1-14.9c10.3-1.3,9.6-3.1,6.3-11.4C778.1,581.3,740,484.4,701.6,386.9z
	 M709.6,642.8c-3,4.2-6,8.4-8.6,12.8c-1.6,2.7-2.7,3.1-5.4,1c-13-10.2-26.2-20.2-39.4-30.2c-0.8-0.6-1.5-1.1-2.2-1.7
	c-1.1,0.1-1.3,1.1-1.8,1.7c-1.9,2.1-2.6,6.2-5.2,6.4c-2.1,0.1-4.4-2.9-6.6-4.6c-6.5-5-6.6-5.1-2-11.7c1.6-2.2,1.3-3.3-0.9-4.7
	c-3-2-5.7-4.3-8.6-6.5c-1.2-0.9-1.9-1.6-0.7-3.1c2.9-4.1,5.8-8.3,8.5-12.5c1-1.5,1.8-1.5,3.1-0.4c3,2.4,6.1,4.6,9,7.1
	c1.6,1.4,2.4,1.1,3.6-0.6c5.3-8,10.8-15.9,16.1-23.9c1.4-2.2,2.3-2.4,4.6-0.9c9.4,6,15.6,14,19.5,24.7c5.1,14.1,11.5,27.6,17.5,41.4
	C711,639.3,711,640.9,709.6,642.8z M309.8,706.2c25.4,3.7,50.8,7.4,76.2,11.1c29.5,4.3,59.1,8.6,88.7,12.8c2.3,0.3,5.2,1.7,6.7-0.5
	c1.5-2.2-0.9-4.5-2.1-6.4c-60.7-102.5-121.5-205-182.2-307.4c-5-8.4-10-16.9-15.4-25.9c-0.7,1.8-1.2,2.9-1.5,4
	c-28.4,83.6-56.8,167.3-85.2,250.9c-3.9,11.6-7.9,23.1-11.7,34.8c-2.2,6.6-1.1,8.2,5.6,9.2c12.8,1.9,25.6,3.8,38.4,5.6
	C254.7,698.3,282.3,702.2,309.8,706.2z M257.4,598.7c2.5-1.5,4.9-3.1,7.2-4.8c1.9-1.4,2.6-1.1,3.4,1.2c2.9,8.8,6.8,16.9,13.9,23.2
	c7,6.1,15.1,7.2,23.8,2.9c-9.4-5-15.9-12.5-20.3-21.7c-6.6-13.7-3.1-27.3,9.6-32.7c1.6-0.7,1.3-1.4,0.5-2.4
	c-2.2-2.9-4.2-5.9-6.5-8.7c-1.4-1.7-1.4-2.7,0.6-3.9c4.1-2.5,8.1-5.2,12-7.9c1.6-1.1,2.4-0.8,3.5,0.7c3.3,4.6,6.5,9.2,10,13.6
	c1.9,2.3,1.9,3.8-0.9,5.1c-0.8,0.4-1.6,1.1-2.7,1.9c11.3,3.5,19,11,25.3,20.1c13.5,19.4,9.4,38.3-10.7,50.5
	c-18.3,11.1-36.3,9-51.7-6.3c-7.8-7.8-13.7-17-18-27.1C255.6,600.7,255.7,599.7,257.4,598.7z M746.5,712.4
	c-27.2,3.8-54.4,7.5-81.6,11.3c-24.9,3.4-49.9,6.9-74.8,10.4c-27.9,3.9-55.8,7.7-83.8,11.6c-2.7,0.4-3.8,1.7-3.6,4.4
	c0.2,2.9,0.4,5.7,0.6,8.6c1.9,35.5,3.8,71,5.7,106.4c0.2,4.1,1.7,4.9,5.4,2.8c3.4-1.9,6.6-3.9,10-5.8
	c88.5-51.3,177.1-102.5,265.6-153.8c1-0.6,2.3-0.8,2.9-2.2c-0.8,0.1-1.5,0.1-2.2,0.2C775.9,708.3,761.2,710.4,746.5,712.4z
	 M653.4,775.9c-29.5,17.6-59,35-88.5,52.5c-2.1,1.2-6.7-1-6.7-3.3c0-1.2,1.2-1.4,2-1.9c4.5-2.7,9-5.4,13.9-8.3
	c-5.3-5.8-10.3-11.1-15.1-16.6c-1.1-1.2-1.9-1.4-3.2-0.3c-3.8,2.9-7.8,5.6-11.6,8.5c-3.6,2.8-4.2-1.1-5.7-2.4c-2-1.8,0.4-2.4,1.3-3
	c8.9-6.9,18.5-12.9,28.3-18.6c1.9-1.1,3-1,4.5,0.7c5.7,6.5,11.6,12.8,17.4,19.2c1.3,1.5,2.2,2,4.1,0.8c6.9-4.3,14-8.4,21-12.5
	c1.7-1,2.3-1.6,0.6-3.4c-4.5-4.7-8.8-9.5-13.1-14.4c-1.3-1.5-2.2-1.7-3.8-0.4c-3.8,2.9-7.8,5.6-11.6,8.5c-3.3,2.5-3.7-1.2-5.1-2.3
	c-1.9-1.5-0.3-2.3,0.8-3.2c9.1-7.1,18.9-13.2,28.8-19.1c1.8-1.1,2.9-0.8,4.2,0.7c5.7,6.5,11.6,12.8,17.3,19.3
	c1.5,1.7,2.6,1.9,4.4,0.7c3.9-2.5,8-4.8,12.1-7.2c3.6-2.2,4.2,1.6,5.6,3.1C657.1,775.2,654.2,775.4,653.4,775.9z M490.8,789
	c-0.7-12.5-1.3-24.9-2-37.4c-0.3-4.6-0.9-5.4-5.4-6.1c-6-0.9-12.1-1.9-18.1-2.7c-27.8-4-55.5-8-83.3-12c-22-3.2-43.9-6.4-65.9-9.6
	c-26.3-3.8-52.7-7.6-79-11.4c-9.4-1.3-18.7-2.7-28.1-4c-0.1,0.2-0.2,0.4-0.3,0.7c1,0.6,2,1.2,3,1.8c44.9,25.5,89.9,51.1,134.8,76.6
	c48,27.2,96,54.4,144,81.6c1.1,0.6,2.3,1.9,3.6,1.2c1.3-0.7,0.7-2.4,0.6-3.6C493.4,839.1,492.1,814,490.8,789z M443.6,782.9
	c-4,5.8-9.7,9.5-16,12.5c-1.6,0.8-3.3,1.4-5,2.1c3.5,4.2,3.5,4.2-1.3,7.4c-5.9,4-5.9,4-11.7-0.3c-0.5-0.4-0.9-0.8-1.4-1.1
	c-2.4-1.3-2.8-2.6,0.4-4.3c-9.8-1.3-17-5.8-23-12.7c-1.8-2.1-1.7-3.2,0.7-4.7c4.9-3.1,4.8-3.2,8.4,1.3c6.1,7.8,15.6,9.6,23.5,4.4
	c-3.4-1.1-6.7-2.1-9.6-4.2c-8.8-6.3-8.6-14.7,0.4-20.6c10.7-6.9,25.8-4.5,33.9,5.3C447,772.6,447.2,777.7,443.6,782.9z M699.9,357.9
	c3.8,4.7,3.8,4.7,9.5,2.1c29.1-13.3,58.2-26.6,87.3-40c2-0.9,5.3-1.3,5.4-3.6c0.2-2.5-3.1-3.3-5.1-4.4
	c-69.1-41.6-138.2-83.2-207.3-124.7c-19.2-11.6-38.5-23.1-57.7-34.6c-0.2,0.1-0.3,0.3-0.5,0.4c0.7,0.9,1.4,1.9,2.2,2.8
	C589.2,223.2,644.5,290.5,699.9,357.9z M674.4,275c9.2,5.6,18.7,10.8,28.1,16.1c2.7,1.5,5.6,2.9,8.7,3.3c1.5,0.2,3.3,0.5,4.3-1.1
	c1-1.5,0.2-3.1-0.6-4.4c-2-3.2-4.6-5.8-7.5-8.2c-3.5-2.8-7.1-5.5-11-8.5c5.9-1.1,10.8-1,15.1,3.6c4.9,5.4,10.6,10.1,15.1,15.9
	c1.9,2.5,3.7,5,4.8,8c1.7,4.7-0.1,7.5-5.2,7.7c-5.2,0.2-9.8-1.8-14.4-4c-8.7-4.2-16.8-9.1-25.2-13.9c-1.2-0.7-2.4-1.3-4-1.6
	c5.5,6.4,11,12.8,16.9,19.6c-5.2,0.7-9.2,1.2-12.8-3.4c-7.8-9.8-16.4-19.1-24.6-28.7c-0.8-1-2-1.7-2.3-3.4
	C665.2,271.2,669.8,272.1,674.4,275z M267.8,373.5c-20.5-9.2-40.8-18.5-61.3-27.8c-5.6-2.6-11.3-5.1-17.5-7.9
	c-3.3,102.9-6.6,205.3-9.8,307.6c0.2,0,0.3,0,0.5,0c0.3-0.7,0.5-1.3,0.8-2c30-87.9,59.9-175.9,89.9-263.8
	C271.4,376.4,271,374.9,267.8,373.5z M231.7,441c-0.4,2.1-0.5,4.3-0.8,7c-2.2-1.3-4.2-2.3-6.3-3.5c-1.3,3.7-0.9,7.3-1.2,10.8
	c-0.8,7.6-1.1,15.3-1.9,23c-0.3,2.6,0.4,4,3,4c3.7,0,3.8,2.2,3.5,5c-0.7,6.9,0.9,6.6-7.1,4.9c-2.6-0.6-4.6-2.5-6.9-3.8
	c-1.5-0.9-1-2.2-0.9-3.5c1.1-13.6,2-27.3,3.4-40.9c0.4-4.1-1.2-5.9-5.1-7c0.8,7.1,1,14,0.1,20.9c-0.7,5.5-1.5,10.9-4.2,15.9
	c-3.5,6.4-7.8,7.2-13.9,3.2c-6.2-4.1-6.8-9.6-4.7-16.4c1.8,2.2,3.2,4.4,5.3,6.1c3.3,2.7,6.1,2.1,7.7-1.8c0.8-2,1.2-4.1,1.9-6.6
	c-8.3,1-11.1-4.5-13.2-10.6c-2.7-8-2.7-16.1-0.1-24c2.6-7.7,8.5-8.9,14.3-3.1c2.7,2.8,4.1,6.3,5.7,10.5c0.7-6,0.7-6.1,5.3-3.2
	c4.3,2.6,8.5,5.4,13,7.7C231.2,436.7,232.2,438.3,231.7,441z M272.4,360.1c5.3,2.4,6.7,2.1,9.7-1.5c54.7-65.3,109.3-130.5,164-195.8
	c0.5-0.6,0.9-1.4,1.4-2.1c-0.1-0.1-0.3-0.2-0.4-0.3c-83.4,54.9-166.9,109.9-250.8,165.1c7.3,3.3,14,6.3,20.8,9.4
	C235.5,343.3,253.9,351.7,272.4,360.1z M247.3,314.5c3.2-8.6,8.9-15.6,15.4-21.8c6.6-6.2,14.3-10.5,23.2-12.4
	c3.1-0.6,5.3,0.1,5.8,4.2c6.6-6.6,13.6-11.5,21.9-14.5c2.8-1,5.7-1.9,8.8-1.9c4.3,0,5.8,1.9,4.4,5.9c-1.6,4.6-4.4,8.5-7.3,12.4
	c-8.7,11.7-19.8,19.8-34,23.4c-5.4,1.4-7.1,0.4-7.9-4.6c-6.5,6.5-13.8,11.6-22.8,13.8c-1.2,0.3-2.4,0.5-3.5,0.5
	C247.4,319.8,246,318.1,247.3,314.5z M522.1,305.5c-3.3-8.7-3.5-17.8-3.8-27.6c0-3.7,0-8.2,1.1-12.5c1.3-5,4.1-7.9,8.2-8.5
	c5.5-0.7,9.4,1.2,12,5.9c2.3,4.2,3.1,8.8,3.7,13.4c1.1,8.9,1.9,17.9,0.5,26.8c-1,6.5-4.1,10.2-8.9,10.7
	C528.7,314.5,524.5,311.8,522.1,305.5z M471.5,479.6c-7.8,11.6-15.2,22.6-22.7,33.6c-0.2-0.1-0.5-0.1-0.7-0.2c0-5.2,0-10.4,0-15.6
	c0-5,0-10.1,0-15.1c0-1.6,0.1-2.8,2.2-2.8C457.1,479.7,463.9,479.6,471.5,479.6z M678.2,594.1c5,11.9,10.1,23.7,14.6,36.1
	c-2.8-2.1-5.6-4.3-8.3-6.4c-6-4.6-12-9.2-18-13.8c-1-0.8-2.3-1.4-1-3.1c3.7-5.3,7.3-10.7,11.1-16.3C677.2,592,677.7,593,678.2,594.1
	z M313.3,610.4c-6.2,0-13.3-7.5-13.1-13.9c0.2-5.8,8.1-12.3,14.8-12.3c6.3,0.1,13.1,7.4,13,13.9C328,603.8,320.1,610.4,313.3,610.4z
	 M434.2,772.2c0.5,2.3-1,3.8-2.7,5.1c-2.6,2-5.3,3.7-9.2,3.7c-2.1,0.1-4.2-0.9-5.9-2.8c-1.3-1.4-1.5-2.9-0.5-4.6
	c2.3-3.9,9.1-6.9,13.4-5.7C431.7,768.5,433.6,769.7,434.2,772.2z M204.2,437.7c0.1,2.7-0.3,5.3-1,7.8c-0.3,1.3-0.8,2.7-2.3,2.9
	c-1.6,0.2-2.5-1.1-3.3-2.4c-1.6-2.6-1.3-5.5-1.3-8.4c0-2.4,0.2-4.8,0.8-7.1c0.4-1.4,0.8-2.9,2.6-3c1.6-0.1,2.6,1.1,3.3,2.4
	C204.2,432.4,204.3,435,204.2,437.7z M289.7,294.6c2.4-5.8,14-13.2,20.4-13.1c3.2,0.1,2.5,1.9,1.6,3.6c-3.7,6.5-9.7,10.1-16.6,12.2
	c-1,0.3-2.1,0.5-2.4,0.6C289.1,298.2,288.8,296.7,289.7,294.6z M262.1,303.7c1.4-4.4,12-11.6,16.7-11.3c2,0.1,2.1,1.1,1.5,2.7
	c-1.8,4.7-11.3,11.2-16.4,11.1C262,306.3,261.5,305.4,262.1,303.7z"/>
</svg>
